<?xml version="1.0" encoding="UTF-8" standalone="no"?>
<svg
   xmlns:dc="http://purl.org/dc/elements/1.1/"
   xmlns:cc="http://creativecommons.org/ns#"
   xmlns:rdf="http://www.w3.org/1999/02/22-rdf-syntax-ns#"
   xmlns:svg="http://www.w3.org/2000/svg"
   xmlns="http://www.w3.org/2000/svg"
   xmlns:sodipodi="http://sodipodi.sourceforge.net/DTD/sodipodi-0.dtd"
   xmlns:inkscape="http://www.inkscape.org/namespaces/inkscape"
   sodipodi:docname="dice.svg"
   inkscape:version="1.0 (4035a4fb49, 2020-05-01)"
   id="svg8"
   version="1.1"
   viewBox="0 0 74.762444 68.655144"
   height="68.655144mm"
   width="74.762444mm">
  <defs
     id="defs2" />
  <sodipodi:namedview
     fit-margin-bottom="0"
     fit-margin-right="0"
     fit-margin-left="0"
     fit-margin-top="0"
     inkscape:window-maximized="1"
     inkscape:window-y="-8"
     inkscape:window-x="-8"
     inkscape:window-height="1057"
     inkscape:window-width="1856"
     showgrid="false"
     inkscape:document-rotation="0"
     inkscape:current-layer="layer1"
     inkscape:document-units="mm"
     inkscape:cy="-60.85933"
     inkscape:cx="63.5842"
     inkscape:zoom="0.98994949"
     inkscape:pageshadow="2"
     inkscape:pageopacity="0.0"
     borderopacity="1.0"
     bordercolor="#666666"
     pagecolor="#ffffff"
     id="base" />
  <metadata
     id="metadata5">
    <rdf:RDF>
      <cc:Work
         rdf:about="">
        <dc:format>image/svg+xml</dc:format>
        <dc:type
           rdf:resource="http://purl.org/dc/dcmitype/StillImage" />
        <dc:title></dc:title>
      </cc:Work>
    </rdf:RDF>
  </metadata>
  <g
     transform="translate(-91.355485,-115.50331)"
     id="layer1"
     inkscape:groupmode="layer"
     inkscape:label="Layer 1">
    <path
       sodipodi:nodetypes="cssscssssssssscscssssssssssccsscsssssssssssssssssssssssssssssssssssssssssssscsscsssscssscsssccsscccsssssccs"
       id="path24"
       d="m 116.35319,183.91981 c -1.57846,-0.267 -2.73744,-0.87327 -4.20765,-2.20105 -2.44943,-2.21213 -18.859614,-19.66673 -19.479507,-20.71926 -0.354888,-0.60258 -0.824797,-1.9567 -1.044242,-3.00917 -0.356647,-1.71048 -0.355879,-2.19793 0.0072,-4.59295 0.629204,-4.15008 0.930731,-5.96239 1.326202,-7.97104 0.200554,-1.01865 0.493726,-2.68552 0.651492,-3.70417 0.157767,-1.01864 0.412343,-2.56646 0.565725,-3.43958 0.153382,-0.87313 0.454547,-2.65906 0.669256,-3.96875 0.369464,-2.25368 0.696375,-4.19168 1.584403,-9.39271 0.211194,-1.23693 0.5012,-2.99995 0.644457,-3.91783 0.323643,-2.07365 0.729762,-2.87317 2.078267,-4.09146 1.652347,-1.4928 2.324157,-1.57799 9.894537,-1.25466 3.67073,0.15678 10.60311,0.39343 15.4053,0.52588 12.25067,0.3379 11.39952,0.0942 23.8125,6.817 12.70858,6.88286 15.35752,8.35943 15.97616,8.9054 0.82312,0.72644 1.87734,2.98137 1.88063,4.02254 0.001,0.45123 -0.10673,1.1656 -0.24033,1.5875 -0.1336,0.4219 -0.74033,2.37443 -1.34828,4.33896 -0.60794,1.96453 -1.67469,5.35781 -2.37053,7.54063 -1.20314,3.77412 -1.97191,6.21344 -5.42008,17.19791 -2.17141,6.91726 -2.20268,6.98878 -3.7173,8.50341 -1.48155,1.48154 -2.89001,2.21978 -5.15715,2.70308 -0.80036,0.17062 -3.89599,0.84517 -6.87917,1.499 -2.98317,0.65384 -6.31692,1.37995 -7.40833,1.6136 -2.52441,0.54041 -4.45876,0.97732 -7.9375,1.79282 -3.42444,0.80278 -7.05661,1.49333 -7.636,1.45176 -0.23858,-0.0171 -0.98113,-0.1237 -1.65009,-0.23686 z m 8.80171,-2.24349 c 1.79438,-0.36266 4.15548,-0.88707 5.24689,-1.16535 1.0914,-0.27828 2.63922,-0.63652 3.43958,-0.79611 2.09524,-0.41775 3.50626,-0.71998 6.35,-1.36011 4.83494,-1.08835 5.96108,-1.33568 7.01146,-1.53992 2.23369,-0.43434 4.56015,-2.12054 6.07545,-4.40344 1.00631,-1.51607 1.09738,-1.75912 3.17145,-8.46422 0.6752,-2.18281 1.33405,-4.20688 1.46411,-4.49792 0.13006,-0.29104 0.43139,-1.24354 0.66962,-2.11666 0.23824,-0.87313 0.94899,-3.19485 1.57943,-5.15938 4.3539,-13.56734 4.49488,-14.16648 3.75188,-15.94474 -0.26462,-0.63333 -0.68215,-1.09447 -1.15487,-1.27549 -0.82214,-0.31483 -9.64166,-0.15281 -22.17166,0.40732 -7.38058,0.32993 -7.4137,0.33404 -8.84392,1.09756 -3.25846,1.73954 -5.6813,5.23434 -6.49272,9.36535 -0.21437,1.09141 -0.75206,3.47266 -1.19487,5.29167 -0.4428,1.81901 -1.04427,4.37885 -1.33661,5.68854 -0.29233,1.30969 -0.82053,3.52305 -1.17378,4.91859 -0.35325,1.39553 -0.89265,3.77678 -1.19866,5.29166 -0.30601,1.51488 -1.02652,4.62952 -1.60114,6.92142 -1.43814,5.73616 -1.3886,6.8177 0.36119,7.88462 1.10531,0.67396 2.12243,0.64984 6.04717,-0.14339 z m -10.98606,-1.58041 c 0.848,-0.59396 1.27643,-1.74113 2.47375,-6.62374 0.60664,-2.47385 1.52534,-6.16479 2.04157,-8.20208 0.90589,-3.57511 2.45312,-9.95717 4.06254,-16.75732 0.42482,-1.79496 0.82957,-3.35607 0.89945,-3.46913 0.0699,-0.11306 0.24516,-1.24503 0.38952,-2.51549 0.20238,-1.78111 0.17739,-2.75458 -0.10915,-4.2522 -0.70921,-3.70669 -1.83738,-5.30655 -5.43098,-7.70171 -1.74069,-1.16018 -5.1707,-3.53053 -9.49155,-6.55925 -8.47296,-5.93917 -8.17416,-5.77502 -9.202072,-5.05504 -1.060548,0.74283 -1.688402,2.55075 -2.483683,7.15181 -0.644652,3.7296 -1.087061,6.16223 -1.323248,7.27604 -0.138863,0.65484 -0.369149,1.96453 -0.511747,2.91041 -0.485035,3.21735 -1.027307,6.47695 -1.474553,8.86355 -0.245435,1.30968 -0.538363,3.03609 -0.650952,3.83645 -0.112588,0.80037 -0.348512,2.01152 -0.524275,2.69145 -0.187152,0.72399 -0.274375,2.25885 -0.2105,3.70417 0.132221,2.9918 0.837895,4.98983 2.419089,6.84936 1.70474,2.00482 15.310281,16.41751 16.407561,17.38093 1.06592,0.93589 1.85994,1.07366 2.71923,0.47179 z m 34.22461,-46.96333 c 2.69214,-0.13359 6.89532,-0.32237 9.34042,-0.41949 5.21802,-0.20728 5.44259,-0.39695 2.43078,-2.05308 -15.09715,-8.3016 -22.31775,-12.08888 -23.04794,-12.08888 -0.21984,0 -0.63384,-0.1253 -0.91998,-0.27844 -0.28616,-0.15315 -1.49872,-0.45057 -2.69459,-0.66094 -1.96159,-0.34507 -5.94183,-0.48335 -29.2941,-1.01775 -1.04313,-0.0239 -1.2011,0.0465 -1.27518,0.56807 -0.0466,0.32823 0.0553,0.59531 0.22706,0.59531 0.30079,0 2.05405,1.13377 5.94291,3.84305 14.26566,9.93861 15.73505,10.78473 20.21543,11.64068 2.15235,0.4112 9.14894,0.36406 19.07519,-0.12853 z m -19.471,-2.62515 c -2.16457,-0.61973 -3.39455,-1.36732 -3.50475,-2.13019 -0.11778,-0.81536 0.33892,-1.06591 1.95194,-1.07081 2.51252,-0.008 6.14366,1.29682 6.84456,2.45884 0.73416,1.21717 -2.19688,1.62824 -5.29175,0.74216 z m 21.52662,-0.28474 c -2.02116,-0.27128 -4.54081,-1.5301 -4.65371,-2.325 -0.0936,-0.6588 0.0369,-0.6952 2.20122,-0.61392 2.60991,0.098 6.53985,1.91896 5.78043,2.67838 -0.37978,0.37978 -1.68069,0.48163 -3.32794,0.26054 z m -16.6077,-9.16051 c -2.84981,-0.87854 -3.81003,-1.58964 -3.02561,-2.24065 0.50032,-0.41524 2.37659,-0.2184 4.75208,0.49852 2.38879,0.72095 3.01597,1.15119 2.53063,1.73599 -0.4395,0.52956 -2.54938,0.5326 -4.2571,0.006 z m -17.99167,-0.0111 c -1.85638,-0.29658 -3.9825,-0.99819 -4.50776,-1.48754 -0.5525,-0.51474 -0.56103,-0.5721 -0.13168,-0.88605 0.49303,-0.36051 3.44097,-0.25708 5.16861,0.18135 1.40049,0.35541 2.69614,1.23899 2.59535,1.76992 -0.0653,0.34414 -0.37795,0.46478 -1.27481,0.49197 -0.65354,0.0198 -1.4859,-0.0115 -1.84971,-0.0696 z"
       style="fill:#eb8102;stroke-width:0.264583" />
    <path
       id="path40"
       d="m 102.04417,160.64305 c -0.2318,-0.28407 -0.42541,-0.61097 -0.43028,-0.72637 -0.005,-0.11666 0.0546,-0.38341 0.13422,-0.60081 0.23167,-0.63325 0.36447,-0.60086 1.20342,0.29339 l 0.74384,0.79281 1.42497,-4.4182 1.42497,-4.41822 0.72999,-8.02522 c 0.73908,-8.12494 0.80108,-8.63531 1.07692,-8.86692 0.0716,-0.0601 0.67238,0.50732 1.95086,1.84255 l 1.84742,1.92938 1.00653,-1.62745 c 0.5536,-0.89508 1.07431,-1.69721 1.15712,-1.78247 0.13615,-0.14017 0.24905,-0.0497 1.17859,0.9444 l 1.02802,1.09941 -0.0206,0.39741 c -0.0245,0.47463 -0.0758,0.65037 -0.26468,0.90684 -0.13213,0.17942 -0.20888,0.1252 -1.09789,-0.77553 l -0.95582,-0.96845 -0.71324,1.15306 c -0.39228,0.63419 -0.72594,1.19245 -0.74147,1.24059 -0.0154,0.0481 0.29732,0.43566 0.6952,0.86117 0.58698,0.62774 0.72844,0.83123 0.75014,1.07879 0.0539,0.61033 0.24812,0.30011 -4.82697,7.69426 l -2.35054,3.42463 -1.4195,4.40126 -1.41949,4.40124 0.51173,0.55216 c 0.66697,0.72 1.09186,1.34045 1.07115,1.56496 -0.009,0.0989 -0.0667,0.33617 -0.12787,0.52743 -0.22356,0.69825 -0.25216,0.68349 -1.75598,-0.90869 -0.76415,-0.80904 -1.57899,-1.70344 -1.81076,-1.98758 z m 8.82389,-20.13332 c 0.36633,-0.6009 0.66618,-1.12059 0.66632,-1.15488 -5.7e-4,-0.0342 -0.69559,-0.78554 -1.54608,-1.66944 l -1.54634,-1.60707 -0.17666,1.63192 -0.17665,1.63193 1.05665,1.13005 1.05666,1.13006 z m 1.89014,2.05042 c 0.37811,-0.57234 0.69712,-1.07053 0.70892,-1.10711 0.0118,-0.0366 -0.27979,-0.38862 -0.64795,-0.78238 l -0.6694,-0.71588 -0.25713,0.39118 c -0.14143,0.21515 -0.45692,0.71711 -0.70109,1.11547 l -0.44398,0.7243 0.66157,0.70752 0.66158,0.70752 z m -6.54399,-2.45177 c -0.56288,-1.71987 -0.2595,-4.78813 0.71235,-7.20514 1.36797,-3.4021 3.21028,-4.0589 3.70204,-1.31983 0.26044,1.45077 -0.0385,4.2311 -0.45264,4.20975 -0.16438,-0.008 -0.17875,-0.21686 -0.0809,-1.17082 0.21079,-2.05066 -0.13824,-3.34953 -0.92151,-3.42931 -0.39009,-0.0397 -1.19998,0.7757 -1.6114,1.62243 -0.60645,1.2481 -1.00966,2.89141 -1.0495,4.27734 -0.034,1.18351 0.11242,1.92292 0.45888,2.3161 0.38903,0.44156 0.4426,0.63328 0.31078,1.11232 -0.0727,0.26436 -0.15386,0.4307 -0.23971,0.4916 -0.16606,0.11783 -0.67634,-0.43913 -0.82862,-0.9044 z"
       style="fill:#eb8102;stroke-width:0.0862439" />
    <path
       id="path71"
       d="m 135.94469,172.20788 c -1.94922,0.0271 -2.98863,-0.34469 -2.9354,-1.04999 0.0206,-0.26553 0.3755,-1.48059 3.75874,-12.8505 1.38129,-4.64208 2.69346,-9.05207 2.91593,-9.79992 0.24163,-0.81224 0.45564,-1.44788 0.53144,-1.57848 0.36727,-0.63276 1.53559,-1.23722 3.34018,-1.72809 1.2489,-0.33965 4.52215,-0.7499 5.64554,-0.70769 2.18335,0.0822 2.7431,0.47571 2.30006,1.61677 -0.0983,0.25316 -2.13363,5.67896 -4.52296,12.05731 -3.09977,8.27489 -4.39454,11.67741 -4.51986,11.87781 -0.42804,0.68424 -1.91206,1.37083 -3.99858,1.8499 -1.26503,0.29043 -1.30964,0.296 -2.51494,0.31241 z m 4.45043,-1.98028 c 0.33236,-0.11249 0.86004,-0.32552 1.17258,-0.47359 l 0.56829,-0.26927 0.35317,-0.93262 c 0.19423,-0.51289 0.34955,-0.95419 0.34518,-0.98057 -0.005,-0.0264 -0.29517,0.0673 -0.64618,0.20835 -2.54535,1.02234 -5.79657,1.37535 -7.6649,0.83234 l -0.17403,-0.0506 -0.18226,0.544 c -0.10021,0.29919 -0.23427,0.74595 -0.29782,0.99284 l -0.11552,0.44887 0.43279,0.13555 c 1.40665,0.44008 4.1573,0.23844 6.20877,-0.45525 z m 0.5911,-3.18581 c 0.86487,-0.22973 2.16647,-0.71788 2.32516,-0.87202 0.0859,-0.0834 3.44695,-8.92557 3.43048,-9.0248 -0.006,-0.0221 -0.33803,0.0915 -0.74289,0.25339 l -0.73613,0.29432 -0.82942,1.01582 c -0.83524,1.02292 -1.42022,1.69798 -1.70788,1.97083 -0.14711,0.13951 -0.1554,0.17054 -0.14954,0.55649 0.005,0.33369 -0.0443,0.55897 -0.26885,1.22688 -0.32582,0.96898 -0.40319,1.08877 -1.81599,2.81132 -1.22273,1.49076 -1.65623,1.7332 -1.93732,1.08345 -0.18917,-0.43711 -0.37483,-2.51273 -0.27245,-3.0449 0.0776,-0.40283 0.0663,-0.48184 -0.0655,-0.46577 -0.25036,0.031 -0.36394,-0.3087 -0.50174,-1.50045 -0.17458,-1.51008 -0.17536,-1.4727 0.0545,-2.25526 l 0.20378,-0.69355 -0.25785,-0.0723 c -0.14181,-0.0395 -0.28256,-0.0406 -0.31277,-0.002 -0.0525,0.0669 -2.20977,7.27579 -2.50586,8.37306 -0.12874,0.47708 -0.12505,0.53302 0.0409,0.61797 0.8823,0.45183 3.82048,0.31938 6.0494,-0.27273 z m -0.35749,-2.95256 c 0.60008,-0.74286 1.11599,-1.43992 1.15788,-1.56459 0.0417,-0.12375 -0.01,-0.82391 -0.11408,-1.55626 -0.16717,-1.17322 -0.2102,-1.31486 -0.35932,-1.19393 -0.30505,0.24726 -2.21906,2.71609 -2.30588,2.97431 -0.11743,0.34937 0.24138,2.71802 0.40863,2.69673 0.0804,-0.0105 0.54442,-0.52911 1.2127,-1.35631 z m -0.7508,-3.6754 c 1.03594,-1.26724 1.33281,-1.71165 1.2508,-1.87243 -0.0231,-0.0455 -0.43468,-0.0688 -0.91449,-0.0523 -0.4798,0.017 -1.04328,0.0196 -1.25225,0.006 -0.32834,-0.021 -0.39549,0.006 -0.49483,0.20025 -0.0659,0.12873 -0.1169,0.35518 -0.11948,0.53206 -0.007,0.50987 0.31274,2.48804 0.40098,2.47706 0.0452,-0.005 0.55323,-0.58666 1.12914,-1.29114 z m 3.56832,-1.52914 c 0.35337,-0.41812 0.65314,-0.79167 0.66612,-0.83011 0.0133,-0.0386 -0.34111,-0.008 -0.78689,0.068 -0.44584,0.0759 -0.8231,0.17497 -0.83836,0.22042 -0.0499,0.14864 0.16717,1.32071 0.24297,1.31122 0.0405,-0.004 0.36281,-0.35134 0.71622,-0.76941 z m -2.44062,-1.7299 c 0.0657,-0.19537 -0.15419,-1.20976 -0.25906,-1.1967 -0.0617,0.008 -0.34239,0.2982 -0.62366,0.64555 l -0.51138,0.6315 0.42891,0.0146 c 0.69379,0.0235 0.93344,8e-5 0.96532,-0.095 z m 4.10872,-0.64454 c 0.11489,-0.14724 -0.16109,-2.58112 -0.3005,-2.65016 -0.16664,-0.0825 -2.25242,2.51347 -2.42004,3.01211 -0.0794,0.23552 -0.0409,0.2354 1.27414,-0.001 0.74571,-0.1344 1.39658,-0.29657 1.44641,-0.36043 z m -6.1742,0.50589 c 0.24155,-0.21452 0.27967,-0.41744 0.0595,-0.31955 -0.10445,0.0473 -0.31448,0.13987 -0.46641,0.20718 l -0.27621,0.12211 0.15409,0.066 c 0.23177,0.0997 0.35045,0.0826 0.52903,-0.076 z m 7.53821,-0.92898 0.18412,-0.10994 -0.15743,-0.0562 c -0.50672,-0.18109 -0.55284,-0.17363 -0.61051,0.0999 -0.0431,0.20523 -0.008,0.2494 0.17281,0.21717 0.12514,-0.022 0.30994,-0.0898 0.41115,-0.15077 z m -4.38806,0.11444 c 0.0375,-0.11153 -0.001,-0.172 -0.10244,-0.15944 -0.15822,0.0203 -0.1622,0.0273 -0.13605,0.25317 0.0277,0.24724 0.13845,0.20397 0.23854,-0.0937 z m -3.46511,-0.4454 c 0.19042,-0.0856 0.65726,-0.25461 1.03735,-0.37564 0.38013,-0.12088 0.85648,-0.32598 1.05862,-0.45571 0.31817,-0.20412 0.41643,-0.22161 0.73176,-0.12769 0.2427,0.0721 0.59901,0.0537 1.06796,-0.0552 l 0.70374,-0.16339 0.74264,-0.87227 0.74264,-0.87234 0.42721,-0.0531 0.42722,-0.0531 0.15913,0.88054 0.15894,0.88055 0.53311,0.0567 c 0.29321,0.0319 0.6839,0.10671 0.86821,0.168 0.23949,0.0798 0.35413,0.0719 0.40176,-0.028 0.13057,-0.27348 2.75503,-7.33692 2.74607,-7.3908 -0.005,-0.0301 -0.20047,0.0428 -0.43439,0.16223 -0.80394,0.41028 -1.99088,0.66122 -4.78359,1.0113 -2.79897,0.35128 -3.93381,0.39157 -4.575,0.16412 -0.18774,-0.0665 -0.34933,-0.1115 -0.35909,-0.1 -0.01,0.0113 -0.47939,1.58381 -1.04362,3.49374 -0.56426,1.90994 -1.06908,3.60266 -1.12183,3.76156 -0.0723,0.21763 -0.0638,0.26872 0.0346,0.20696 0.0716,-0.0453 0.28616,-0.15293 0.47668,-0.23787 z m 9.69419,-8.99057 c 1.10534,-0.29533 2.09612,-0.64006 2.13009,-0.74111 0.0383,-0.1137 -0.82864,-0.23747 -1.82274,-0.26044 -1.05736,-0.0243 -4.32825,0.38513 -5.36917,0.67235 -1.14801,0.31663 -2.03524,0.6338 -2.07107,0.74031 -0.0361,0.10766 0.92405,0.24406 1.79511,0.25519 0.93935,0.012 4.42955,-0.42357 5.33771,-0.66624 z"
       style="fill:#eb8102;stroke-width:0.0856289" />
  </g>
</svg>
